<svg class="logo" width="121" height="28" viewBox="0 0 121 28" fill="none" xmlns="http://www.w3.org/2000/svg">
<g clip-path="url(#clip0)">
<path d="M9.36221 12.326C10.1764 11.9144 10.7714 10.9961 10.7714 9.88787C10.7714 8.5263 10.1451 7.51303 9.01775 7.0064C8.42276 6.72142 7.63987 6.59476 6.76305 6.59476H0.656576C0.56263 6.59476 0.5 6.62642 0.5 6.75308V18.9123C0.5 19.0389 0.56263 19.0706 0.656576 19.0706H6.6691C7.79645 19.0706 8.70459 18.9439 9.42484 18.6273C10.7714 17.9623 11.3977 16.7591 11.3977 15.4292C11.3977 13.9093 10.6461 12.8327 9.36221 12.326ZM3.75678 9.34958H6.07411C6.32463 9.34958 6.6691 9.34958 6.95094 9.47623C7.23278 9.60289 7.45198 9.88787 7.45198 10.3945C7.45198 10.8061 7.26409 11.1545 6.91962 11.3128C6.70042 11.4394 6.41858 11.4394 6.07411 11.4394H3.75678V9.34958ZM7.26409 16.1258C6.95094 16.2525 6.48121 16.2525 6.10543 16.2525H3.75678V14.0043H6.29332C6.73173 14.0043 7.13883 14.0359 7.42067 14.1309C7.76514 14.2576 7.95303 14.6692 7.95303 15.1442C7.95303 15.6192 7.67119 15.9675 7.26409 16.1258Z" fill="#067935"/>
<path d="M21.763 14.0676C21.262 13.371 20.8236 12.896 20.3539 12.3894C20.761 11.9461 21.168 11.5661 21.7317 10.8695L25.0198 6.78474C25.1138 6.65809 25.0825 6.59476 24.8946 6.59476H21.2933C21.1994 6.59476 21.168 6.62642 21.1054 6.72142L18.0365 10.7112C17.786 11.0595 17.5981 11.4078 17.3789 11.6928C17.4729 11.1228 17.5042 10.5212 17.5042 9.60289V6.75308C17.5042 6.62642 17.4415 6.59476 17.3476 6.59476H14.3726C14.2474 6.59476 14.2161 6.65809 14.2161 6.75308V18.9123C14.2161 19.0389 14.2787 19.0706 14.3726 19.0706H17.3476C17.4728 19.0706 17.5042 19.0073 17.5042 18.9123V15.5558C17.5042 14.6692 17.4415 14.0993 17.3789 13.6243C17.6607 14.0043 17.9739 14.4159 18.3184 14.8592L21.4812 18.9439C21.5125 19.0389 21.5751 19.0706 21.6691 19.0706H25.3643C25.4896 19.0706 25.5209 18.9756 25.4582 18.8806L21.763 14.0676Z" fill="#067935"/>
<path d="M39.1743 6.59476H36.0428C35.9489 6.59476 35.8862 6.65809 35.8549 6.72142L32.88 14.8592L29.6545 6.72142C29.6232 6.62642 29.5292 6.59476 29.4666 6.59476H26.0846C25.9593 6.59476 25.928 6.68975 25.9593 6.78474L31.1889 19.1023L30.7505 20.2105C30.3434 21.2555 29.9363 21.6671 29.1534 21.6671C28.8716 21.6671 28.3393 21.6038 27.8382 21.5088C27.7443 21.4771 27.6816 21.5088 27.6816 21.6354L27.3372 24.2953C27.3372 24.4219 27.3685 24.4536 27.4624 24.4852C28.0887 24.6119 28.809 24.7386 29.5605 24.7386C31.8779 24.7386 32.6294 23.6303 33.6002 21.1288L39.2996 6.78474C39.3622 6.65809 39.2996 6.59476 39.1743 6.59476Z" fill="#067935"/>
<path d="M50.4791 15.0175C50.4165 14.9225 50.3538 14.9225 50.2599 15.0175C49.3518 15.7775 48.287 16.1891 47.0657 16.1891C45.3121 16.1891 43.9342 15.0492 43.9342 12.8327C43.9342 10.7745 45.2495 9.47622 47.0031 9.47622C47.9739 9.47622 49.0073 9.79286 49.9467 10.6478C50.0407 10.7428 50.072 10.7428 50.166 10.6478L51.857 8.55795C51.9196 8.52628 51.9509 8.43129 51.8883 8.36796C50.3852 6.87972 48.6315 6.40475 46.8779 6.40475C43.1514 6.40475 40.5209 9.15957 40.5209 12.8327C40.5209 16.7907 43.0574 19.2606 46.8152 19.2606C48.4123 19.2606 50.3852 18.8489 51.9822 17.329C52.0762 17.234 52.0762 17.2024 52.0136 17.1074L50.4791 15.0175Z" fill="#067935"/>
<path d="M64.2578 14.9225C64.1952 14.8275 64.1325 14.7959 64.0386 14.8909C63.0678 15.6191 61.6899 16.2524 59.9989 16.2524C58.3079 16.2524 57.3998 15.5558 56.9613 14.7009C56.8048 14.3526 56.7108 13.9726 56.6795 13.6876H65.4791C65.5104 13.5609 65.5417 12.896 65.5417 12.2627C65.5104 8.84293 63.4749 6.40475 59.811 6.40475C56.0532 6.40475 53.548 9.06458 53.548 12.9277C53.548 16.7591 55.8966 19.1972 60.1242 19.1972C62.5668 19.1972 64.3517 18.374 65.573 17.2024C65.667 17.1074 65.667 17.0757 65.6043 16.9807L64.2578 14.9225ZM59.6858 9.19124C61.2515 9.19124 62.191 10.0778 62.4415 11.2494H56.8674C57.2432 9.91952 58.4332 9.19124 59.6858 9.19124Z" fill="#067935"/>
<path d="M76.2829 12.3893C77.1284 11.9777 77.7234 10.9961 77.7234 9.88785C77.7234 7.44967 75.6879 6.37308 73.0888 6.37308C70.6462 6.37308 69.0491 7.16469 67.9531 7.89298C67.8905 7.92464 67.8592 8.01964 67.9218 8.11463L69.3936 10.2045C69.4562 10.2995 69.5189 10.2995 69.6128 10.2362C70.5523 9.66619 71.6483 9.28622 72.6504 9.28622C73.7151 9.28622 74.4353 9.60286 74.4353 10.3628C74.4353 11.2178 73.5272 11.3444 72.7756 11.3444H70.427C70.3331 11.3444 70.3017 11.4077 70.3017 11.5027V13.9092C70.3017 14.0359 70.3644 14.0676 70.427 14.0676L73.1827 14.0992C73.9969 14.0992 74.7485 14.3526 74.7485 15.2392C74.7485 16.0624 74.0596 16.4741 72.7756 16.4741C71.7109 16.4741 70.3957 16.1891 69.1118 15.1125C69.0178 15.0175 68.9552 15.0175 68.8926 15.1125L67.2329 17.139C67.1702 17.234 67.1702 17.2657 67.2642 17.3607C68.2036 18.2473 69.9573 19.3239 72.8383 19.3239C76.9092 19.3239 78.1305 17.3924 78.1305 15.4291C78.1305 14.0992 77.5355 12.991 76.2829 12.3893Z" fill="#067935"/>
<path d="M106.533 6.59476H103.527C103.433 6.59476 103.402 6.68975 103.402 6.75308V11.0278H99.0491V6.75308C99.0491 6.65809 98.9551 6.59476 98.8925 6.59476H95.9176C95.8236 6.59476 95.761 6.68975 95.761 6.75308V18.9123C95.761 19.0073 95.8549 19.0706 95.9176 19.0706H98.8925C98.9865 19.0706 99.0491 18.9756 99.0491 18.9123V14.2893H103.402V18.9123C103.402 19.0073 103.465 19.0706 103.527 19.0706H106.533C106.627 19.0706 106.659 18.9756 106.659 18.9123V6.75308C106.659 6.65809 106.627 6.59476 106.533 6.59476Z" fill="#067935"/>
<path d="M115.521 6.43643C113.266 6.43643 111.043 6.9114 110.229 7.13305C110.135 7.16472 110.103 7.25971 110.103 7.3547L110.604 10.0145C110.636 10.1412 110.73 10.1412 110.792 10.1412C111.982 9.79288 113.642 9.44457 114.957 9.44457C117.087 9.44457 117.306 10.3628 117.306 11.1545V11.7877C116.836 11.5028 115.803 11.0911 114.174 11.0911C111.043 11.0911 109.352 12.801 109.352 15.2392C109.352 17.0124 110.448 19.1973 113.893 19.1973C115.396 19.1973 116.366 18.8806 117.306 18.3106V18.8806C117.306 19.0073 117.369 19.0389 117.462 19.0389H120.312C120.437 19.0389 120.469 18.9756 120.469 18.8806V11.0278C120.5 8.27298 119.341 6.43643 115.521 6.43643ZM114.832 16.6324C113.36 16.6324 112.577 15.9675 112.577 15.0492C112.577 14.1309 113.391 13.466 114.863 13.466C116.648 13.466 117.337 14.2576 117.337 15.0492C117.337 15.8408 116.523 16.6324 114.832 16.6324Z" fill="#067935"/>
<path d="M86.93 16.0625C83.5793 16.0625 80.7609 13.9093 79.7901 10.9328C79.5709 11.6294 79.4457 12.3577 79.4457 13.1493C79.4457 17.2024 82.7964 20.4955 86.93 20.4955C91.0636 20.4955 94.4144 17.2024 94.4144 13.1493C94.4144 12.3894 94.2891 11.6294 94.0699 10.9328C93.0991 13.9093 90.2494 16.0625 86.93 16.0625Z" fill="#067935"/>
<path d="M84.2369 14.4476V9.28624C84.2369 8.46296 83.7046 7.76634 82.9843 7.54469L83.548 6.97472C83.9238 6.59475 83.6419 5.96146 83.1409 5.96146H82.452H81.763C81.262 5.96146 81.0115 6.59475 81.3559 6.97472L81.9196 7.54469C81.1994 7.76634 80.667 8.46296 80.667 9.28624V10.5528C81.2933 12.2944 82.5772 13.7193 84.2369 14.4476Z" fill="#BE5C25"/>
<path d="M88.6837 14.7325V7.22803C88.6837 6.2781 87.9321 5.48648 87.024 5.48648H86.8361C85.928 5.48648 85.1764 6.24643 85.1764 7.22803V14.7642C85.7401 14.9225 86.3037 15.0175 86.93 15.0175C87.525 15.0175 88.12 14.9225 88.6837 14.7325ZM86.93 8.36796C87.5563 8.36796 88.0574 8.58961 88.0574 8.84293C88.0574 9.09625 87.5563 9.3179 86.93 9.3179C86.3037 9.3179 85.8027 9.09625 85.8027 8.84293C85.8027 8.58961 86.3037 8.36796 86.93 8.36796ZM88.0574 10.8061C88.0574 11.0594 87.5563 11.2811 86.93 11.2811C86.3037 11.2811 85.8027 11.0594 85.8027 10.8061C85.8027 10.5528 86.3037 10.3312 86.93 10.3312C87.5563 10.3312 88.0574 10.5528 88.0574 10.8061ZM85.8027 12.7693C85.8027 12.516 86.3037 12.2944 86.93 12.2944C87.5563 12.2944 88.0574 12.516 88.0574 12.7693C88.0574 13.0227 87.5563 13.2443 86.93 13.2443C86.3037 13.276 85.8027 13.0543 85.8027 12.7693Z" fill="#C6A664"/>
<path d="M93.1618 10.5212C93.0365 9.2229 92.191 8.58961 92.191 8.58961V11.0594C92.0031 8.52628 90.8445 7.10138 90.8445 7.10138L90.9071 10.2678C90.4061 7.73467 89.6232 6.18311 89.6232 6.18311V14.4476C92.4729 13.2443 93.1618 10.5212 93.1618 10.5212Z" fill="#9EAD1F"/>
<path d="M43.9343 23.7886C44.1535 23.6936 44.3727 23.472 44.5919 23.092L45.6253 21.5088H44.31L43.5898 22.617C43.4332 22.8387 43.3079 22.997 43.214 23.092C43.0887 23.187 42.9322 23.2186 42.7443 23.2186H42.4624V21.5088H41.2725V26.1951H42.4624V24.3586H42.7756C42.9948 24.3586 43.1514 24.3902 43.2766 24.4852C43.4019 24.5802 43.5272 24.7385 43.6837 24.9602L44.4666 26.1951H45.7819L44.6545 24.4852C44.3727 24.0736 44.1221 23.8519 43.9343 23.7886Z" fill="#9EAD1F"/>
<path d="M49.9781 23.662C49.9781 24.1053 49.8842 24.4219 49.6963 24.6436C49.5084 24.8652 49.2265 24.9602 48.8821 24.9602C48.1931 24.9602 47.8487 24.5486 47.8487 23.7569V21.5088H46.6587V23.8519C46.6587 24.5486 46.8466 25.1185 47.1911 25.5302C47.5355 25.9418 48.0366 26.1635 48.6942 26.1635C49.2579 26.1635 49.665 25.9735 49.9781 25.6252V25.9101C49.9781 26.2268 49.8842 26.4801 49.665 26.6701C49.4457 26.8601 49.1952 26.9234 48.8508 26.9234C48.4123 26.9234 47.9426 26.7967 47.4729 26.5434L46.8153 27.2717C47.4103 27.7467 48.0679 28 48.8821 28C49.571 28 50.1347 27.7784 50.5731 27.335C50.9802 26.8917 51.1994 26.3218 51.1994 25.6252V21.5088H49.9781V23.662Z" fill="#9EAD1F"/>
<path d="M52.7025 26.1951H53.8612V22.6803H55.8967V26.1951H57.0553V21.5088H52.7025V26.1951Z" fill="#9EAD1F"/>
<path d="M59.8423 24.2952V21.5088H58.6523V26.1951H59.4039L61.7839 23.4403V26.1951H62.9738V21.5088H62.191L59.8423 24.2952Z" fill="#9EAD1F"/>
<path d="M68.6419 22.712C68.2661 21.8571 67.5772 21.4454 66.6064 21.4454C65.9175 21.4454 65.3225 21.6671 64.9154 22.1421C64.5083 22.617 64.2891 23.187 64.2891 23.8519C64.2891 24.5486 64.5083 25.1185 64.9467 25.5618C65.3851 26.0051 65.9488 26.2268 66.6377 26.2268C67.3267 26.2268 68.0156 25.9735 68.6732 25.4985L68.0469 24.8019C67.6398 25.0235 67.1701 25.1185 66.6377 25.1185C66.3246 25.1185 66.0427 25.0235 65.8235 24.8652C65.6043 24.6752 65.4791 24.4536 65.4791 24.1369H68.7045C68.7672 23.9469 68.7985 23.6936 68.7985 23.4086C68.7672 23.1553 68.7359 22.9337 68.6419 22.712ZM65.5104 23.4403C65.5104 23.2186 65.6356 22.997 65.8235 22.807C66.0114 22.617 66.2619 22.522 66.5751 22.522C67.0135 22.522 67.3267 22.712 67.5146 23.0603C67.5772 23.187 67.6398 23.3136 67.6398 23.4403H65.5104Z" fill="#9EAD1F"/>
<path d="M72.7756 21.5088H72.024L70.4269 25.0552H69.7067V27.0817H70.8966V26.1951H73.9342V27.0817H75.1242V25.0552H74.404L72.7756 21.5088ZM71.6169 25.0552L72.3998 23.282L73.1827 25.0552H71.6169Z" fill="#9EAD1F"/>
<path d="M79.5084 21.5088V23.662C79.5084 24.1053 79.4144 24.4219 79.2265 24.6436C79.0387 24.8652 78.7568 24.9602 78.4124 24.9602C77.7234 24.9602 77.3789 24.5486 77.3789 23.7569V21.5088H76.189V23.8519C76.189 24.5486 76.3769 25.1185 76.7213 25.5302C77.0658 25.9418 77.5668 26.1635 78.2245 26.1635C78.7881 26.1635 79.1952 25.9735 79.5084 25.6252V25.9101C79.5084 26.2268 79.4144 26.4801 79.1952 26.6701C78.976 26.8601 78.7255 26.9234 78.381 26.9234C77.9426 26.9234 77.4729 26.7967 77.0032 26.5434L76.3455 27.2717C76.9405 27.7467 77.5982 28 78.4124 28C79.1013 28 79.665 27.7784 80.1034 27.335C80.5105 26.8917 80.7297 26.3218 80.7297 25.6252V21.5088H79.5084Z" fill="#9EAD1F"/>
<path d="M39.738 21.6671H38.8298L38.7046 22.3004H37.3893L37.5146 21.6671H36.6065L36.4812 22.3004H35.6983L35.5417 23.1237H36.3246L36.0115 24.6435H35.2286L35.072 25.4352H35.8549L35.7296 26.0368H36.6065L36.7317 25.4352H38.047L37.9217 26.0368H38.8298L38.9551 25.4352H39.8006L39.9572 24.6435H39.143L39.4562 23.1237H40.239L40.3956 22.3004H39.644L39.738 21.6671ZM38.2349 24.6435H36.9196L37.2328 23.1237H38.548L38.2349 24.6435Z" fill="#9EAD1F"/>
</g>
<defs>
<clipPath id="clip0">
<rect width="120" height="28" fill="white" transform="translate(0.5)"/>
</clipPath>
</defs>
</svg>
