<svg width="38" height="40" viewBox="0 0 38 40" fill="none" xmlns="http://www.w3.org/2000/svg">
<path d="M19 28.9114C10.4937 28.9114 3.33891 23.5637 0.874477 16.25C0.317992 17.9801 0 19.7889 0 21.755C0 31.8212 8.50628 40 19 40C29.4937 40 38 31.8212 38 21.755C38 19.8675 37.682 17.9801 37.1255 16.25C34.6611 23.5637 27.5063 28.9114 19 28.9114Z" fill="#067935"/>
<mask id="mask0" mask-type="alpha" maskUnits="userSpaceOnUse" x="1" y="-7" width="36" height="33">
<path d="M19.0012 -6.08691C11.2683 -6.08691 4.76389 8.43469 2.52349 0.966765C2.0176 2.73337 1.72852 4.58028 1.72852 6.58778C1.72852 16.8662 9.46149 25.2174 19.0012 25.2174C28.541 25.2174 36.274 16.8662 36.274 6.58778C36.274 4.66058 35.9849 2.73337 35.479 0.966765C33.2386 8.43469 26.7342 -6.08691 19.0012 -6.08691Z" fill="#067935"/>
</mask>
<g mask="url(#mask0)">
<path fill-rule="evenodd" clip-rule="evenodd" d="M18.9997 28.75C26.6949 28.75 32.9331 22.5939 32.9331 15C32.9331 7.40608 26.6949 1.25 18.9997 1.25C11.3046 1.25 5.06641 7.40608 5.06641 15C5.06641 22.5939 11.3046 28.75 18.9997 28.75ZM20.0002 10C20.0002 9.44771 19.5525 9 19.0002 9C18.4479 9 18.0002 9.44771 18.0002 10V15C18.0002 15.3365 18.1694 15.6505 18.4506 15.8354L22.2506 18.3354C22.7119 18.639 23.332 18.511 23.6356 18.0496C23.9391 17.5882 23.8112 16.9681 23.3498 16.6646L20.0002 14.4609V10Z" fill="#C6A664"/>
</g>
</svg>
