<svg width="38" height="40" viewBox="0 0 38 40" fill="none" xmlns="http://www.w3.org/2000/svg">
<g clip-path="url(#clip0)">
<path d="M19 28.9641C10.4937 28.9641 3.33891 23.642 0.874477 16.3633C0.317992 18.0851 0 19.8853 0 21.8419C0 31.86 8.50628 39.9996 19 39.9996C29.4937 39.9996 38 31.86 38 21.8419C38 19.9635 37.682 18.0851 37.1255 16.3633C34.6611 23.642 27.5063 28.9641 19 28.9641Z" fill="#067935"/>
<path d="M24.4958 8.38323C23.9462 9.14535 23.4752 9.90746 22.9257 10.5934C22.8472 10.7458 22.7687 10.7458 22.6117 10.7458C17.7446 10.7458 12.8775 10.7458 8.01035 10.7458C7.93185 10.7458 7.93185 10.7458 7.85334 10.7458C7.93185 10.6696 7.93185 10.5934 7.93185 10.5934C8.87387 9.29777 9.73739 7.92597 10.6794 6.63038C10.7579 6.55416 10.8364 6.47795 10.9934 6.47795C15.8605 6.47795 20.7277 6.47795 25.5948 6.47795C25.6733 6.47795 25.6733 6.47795 25.7518 6.47795C25.2808 7.16385 24.8883 7.77354 24.4958 8.38323ZM33.3665 12.0414C33.3665 11.6603 33.288 11.3555 33.0525 11.0506C31.7179 9.14535 30.3834 7.16385 29.0489 5.25857C28.9704 5.10615 28.8919 4.95373 28.8919 4.80131C28.8919 3.65814 28.8919 2.51497 28.8919 1.3718C28.8919 0.533479 28.7349 0.304845 27.9498 0H10.0514C10.0514 0 9.9729 0 9.9729 0.0762112C9.42338 0.228634 9.10938 0.60969 9.10938 1.21938C9.10938 2.43876 9.10938 3.65814 9.10938 4.87752C9.10938 5.02994 9.03087 5.18236 8.95237 5.25857C7.61784 7.24007 6.28331 9.22156 4.87027 11.203C4.71327 11.4317 4.63477 11.7365 4.63477 12.0414C4.63477 13.5656 4.63477 15.0898 4.63477 16.614C7.46083 21.8726 12.8775 25.4545 19.0006 25.4545C20.9632 25.4545 22.7687 25.0735 24.4958 24.4638C24.4958 20.5008 24.4958 16.4616 24.4958 12.4986C24.4958 12.3462 24.5743 12.1938 24.6528 12.0414C25.6733 10.5934 26.6938 9.06913 27.7143 7.62112C27.7928 7.54491 27.7928 7.4687 27.8713 7.39249C28.6564 8.53566 29.3629 9.60261 30.1479 10.6696C30.4619 11.1268 30.7759 11.5841 31.0899 12.0414C31.1684 12.1176 31.1684 12.27 31.1684 12.3462C31.1684 14.785 31.1684 17.2999 31.1684 19.7387C32.0319 18.748 32.7385 17.681 33.3665 16.5378C33.3665 15.0898 33.3665 13.5656 33.3665 12.0414Z" fill="#C6A664"/>
</g>
<defs>
<clipPath id="clip0">
<rect width="38" height="40" fill="white"/>
</clipPath>
</defs>
</svg>
