<svg width="18" height="18" viewBox="0 0 18 18" fill="none" xmlns="http://www.w3.org/2000/svg">
<path d="M9 16.5C9 17.3284 8.32843 18 7.5 18C6.67157 18 6 17.3284 6 16.5C6 15.6716 6.67157 15 7.5 15C8.32843 15 9 15.6716 9 16.5Z" fill="#A9ABB1"/>
<path d="M15 16.5C15 17.3284 14.3284 18 13.5 18C12.6716 18 12 17.3284 12 16.5C12 15.6716 12.6716 15 13.5 15C14.3284 15 15 15.6716 15 16.5Z" fill="#A9ABB1"/>
<path fill-rule="evenodd" clip-rule="evenodd" d="M1 0C0.447715 0 0 0.447715 0 1C0 1.55228 0.447715 2 1 2H1.99995C2.2719 2 2.41243 2.07758 2.50373 2.1562C2.61403 2.25118 2.72184 2.41131 2.81013 2.65417C2.99372 3.15916 2.9998 3.74877 2.9998 4V4.12311L4.84032 11.4851C5.06291 12.3754 5.86287 13 6.7806 13H14.2192C15.1369 13 15.9369 12.3754 16.1595 11.4851L17.6595 5.48508C17.9751 4.22278 17.0204 3 15.7192 3H4.93703C4.89288 2.68131 4.81772 2.32277 4.68977 1.97083C4.52812 1.52619 4.26098 1.03007 3.80879 0.640675C3.33761 0.234923 2.72728 0 1.99914 0H1ZM5.28058 5L6.78061 11H14.2192L15.7192 5H5.28058Z" fill="#A9ABB1"/>
</svg>
