<svg width="16" height="17" viewBox="0 0 16 17" fill="none" xmlns="http://www.w3.org/2000/svg">
<path fill-rule="evenodd" clip-rule="evenodd" d="M9.62531 1.92446C10.9914 0.558369 13.2056 0.563496 14.5708 1.92872C15.936 3.29395 15.9411 5.50812 14.5751 6.87421L7.17175 14.2775C7.06266 14.3866 6.92981 14.469 6.78359 14.5182L1.45473 16.3115C1.09475 16.4327 0.697228 16.3394 0.428663 16.0709C0.160098 15.8023 0.0668578 15.4048 0.188 15.0448L1.98134 9.71592C2.03054 9.56971 2.11291 9.43686 2.222 9.32777L9.62531 1.92446ZM13.1566 3.34293C12.5692 2.75554 11.6214 2.75685 11.0395 3.33867L4.34332 10.0349L6.46464 12.1562L13.1608 5.45999C13.7427 4.87817 13.744 3.93033 13.1566 3.34293ZM4.61708 13.1371L3.36245 11.8824L2.72606 13.7735L4.61708 13.1371Z" fill="#A9ABB1"/>
</svg>
