<svg width="16" height="18" viewBox="0 0 16 18" fill="none" xmlns="http://www.w3.org/2000/svg">
<path fill-rule="evenodd" clip-rule="evenodd" d="M4 2C2.89543 2 2 2.89543 2 4V14C2 15.1046 2.89543 16 4 16H10C10.5523 16 11 16.4477 11 17C11 17.5523 10.5523 18 10 18H4C1.79086 18 0 16.2091 0 14V4C0 1.79086 1.79086 0 4 0H10C10.5523 0 11 0.447715 11 1C11 1.55228 10.5523 2 10 2H4Z" fill="black"/>
<path fill-rule="evenodd" clip-rule="evenodd" d="M11.2929 5.29289C11.6834 4.90237 12.3166 4.90237 12.7071 5.29289L15.7071 8.29289C16.0976 8.68342 16.0976 9.31658 15.7071 9.70711L12.7071 12.7071C12.3166 13.0976 11.6834 13.0976 11.2929 12.7071C10.9024 12.3166 10.9024 11.6834 11.2929 11.2929L12.5858 10H8C7.44772 10 7 9.55228 7 9C7 8.44772 7.44772 8 8 8H12.5858L11.2929 6.70711C10.9024 6.31658 10.9024 5.68342 11.2929 5.29289Z" fill="black"/>
</svg>
