<svg width="17" height="17" viewBox="0 0 17 17" fill="none" xmlns="http://www.w3.org/2000/svg">
<path fill-rule="evenodd" clip-rule="evenodd" d="M8.75 2C6.54086 2 4.75 3.79086 4.75 6C4.75 8.20914 6.54086 10 8.75 10C10.9591 10 12.75 8.20914 12.75 6C12.75 3.79086 10.9591 2 8.75 2ZM12.4939 10.6889C13.8691 9.58948 14.75 7.89761 14.75 6C14.75 2.68629 12.0637 0 8.75 0C5.43629 0 2.75 2.68629 2.75 6C2.75 7.89761 3.63093 9.58948 5.00614 10.6889C4.35401 10.946 3.75263 11.2696 3.21901 11.6507C1.76602 12.6886 0.75 14.2125 0.75 16C0.75 16.5523 1.19772 17 1.75 17C2.30228 17 2.75 16.5523 2.75 16C2.75 15.0261 3.30098 14.05 4.38149 13.2782C5.46008 12.5078 7.0014 12 8.75 12C10.4986 12 12.0399 12.5078 13.1185 13.2782C14.199 14.05 14.75 15.0261 14.75 16C14.75 16.5523 15.1977 17 15.75 17C16.3023 17 16.75 16.5523 16.75 16C16.75 14.2125 15.734 12.6886 14.281 11.6507C13.7474 11.2696 13.146 10.946 12.4939 10.6889Z" fill="#A9ABB1"/>
</svg>
