<svg width="24" height="24" viewBox="0 0 24 24" fill="none" xmlns="http://www.w3.org/2000/svg">
<path d="M12.7273 4H11.2727C10.4694 4 9.81818 4.65122 9.81818 5.45455C9.81818 5.95113 9.19905 6.17809 8.8781 5.79916L8.84137 5.75579C8.27334 5.18776 7.35237 5.18776 6.78434 5.75579L5.75582 6.78431C5.18778 7.35235 5.18778 8.27331 5.75582 8.84135L5.79918 8.87808C6.17812 9.19904 5.95114 9.81818 5.45455 9.81818C4.65122 9.81818 4 10.4694 4 11.2727V12.7273C4 13.5306 4.65122 14.1818 5.45455 14.1818C5.96373 14.1818 6.20338 14.8109 5.82328 15.1497L5.75582 15.2098C5.18778 15.7778 5.18778 16.6988 5.75582 17.2668L6.78434 18.2953C7.35237 18.8634 8.27334 18.8634 8.84137 18.2953L8.90197 18.2206C9.20794 17.8434 9.81818 18.0597 9.81818 18.5455C9.81818 19.3488 10.4694 20 11.2727 20H12.7273C13.5306 20 14.1818 19.3488 14.1818 18.5455C14.1818 18.0468 14.8026 17.8178 15.1265 18.197L15.2105 18.2953C15.7785 18.8634 16.6995 18.8634 17.2675 18.2953L18.296 17.2668C18.8641 16.6988 18.8641 15.7778 18.296 15.2098L18.1975 15.1258C17.8184 14.8024 18.0471 14.1818 18.5455 14.1818C19.3488 14.1818 20 13.5306 20 12.7273V11.2727C20 10.4694 19.3488 9.81818 18.5455 9.81818C18.0598 9.81818 17.8436 9.20805 18.2209 8.90227L18.296 8.84135C18.8641 8.27331 18.8641 7.35235 18.296 6.78431L17.2675 5.75579C16.6995 5.18776 15.7785 5.18776 15.2105 5.75579L15.15 5.82359C14.811 6.2037 14.1818 5.96389 14.1818 5.45455C14.1818 4.65122 13.5306 4 12.7273 4Z" stroke="black" stroke-width="2" stroke-linecap="round" stroke-linejoin="round"/>
<circle cx="12" cy="12" r="3" stroke="black" stroke-width="2"/>
</svg>
