<svg width="38" height="44" viewBox="0 0 38 44" fill="none" xmlns="http://www.w3.org/2000/svg">
<path d="M19 32.7736C10.4937 32.7736 3.33891 27.3595 0.874477 19.9551C0.317992 21.7067 0 23.5379 0 25.5283C0 35.7194 8.50628 43.9997 19 43.9997C29.4937 43.9997 38 35.7194 38 25.5283C38 23.6175 37.682 21.7067 37.1255 19.9551C34.6611 27.3595 27.5063 32.7736 19 32.7736Z" fill="#067935"/>
<mask id="mask0" mask-type="alpha" maskUnits="userSpaceOnUse" x="2" y="0" width="34" height="30">
<path d="M19.7923 0.163585C12.5265 0.163585 5.93815 -1.84014 3.51843 8.17843C3.0431 9.69648 2.77148 11.2835 2.77148 13.0086C2.77148 21.8409 10.0373 29.0171 19.0007 29.0171C27.964 29.0171 35.2298 21.8409 35.2298 13.0086C35.2298 11.3525 34.9582 9.69648 34.4829 8.17843C30.4798 1.36582 27.0581 0.163585 19.7923 0.163585Z" fill="#067935"/>
</mask>
<g mask="url(#mask0)">
<path fill-rule="evenodd" clip-rule="evenodd" d="M13.1391 8.28331C13.1391 5.12703 15.7631 2.56836 19 2.56836C22.2369 2.56836 24.861 5.12703 24.861 8.28331V9.71205H21.9305V8.28331C21.9305 6.70517 20.6185 5.42583 19 5.42583C17.3816 5.42583 16.0696 6.70517 16.0696 8.28331V9.71205H13.1391V8.28331Z" fill="#C6A664"/>
<path fill-rule="evenodd" clip-rule="evenodd" d="M19 2.56836C15.74 2.56836 13.0972 5.14533 13.0972 8.32419V9.71205H9.72274C8.15174 9.71205 6.86021 10.92 6.79481 12.4506L5.94009 32.4529C5.87072 34.0763 7.2017 35.4293 8.86802 35.4293H29.132C30.7983 35.4293 32.1293 34.0763 32.0599 32.4529L31.2052 12.4506C31.1398 10.92 29.8483 9.71205 28.2773 9.71205H24.9029V8.32419C24.9029 5.14533 22.2601 2.56836 19 2.56836ZM21.9724 9.71205H24.9029V15.427C24.9029 16.2161 24.2469 16.8557 23.4376 16.8557C22.6284 16.8557 21.9724 16.2161 21.9724 15.427V9.71205ZM21.9724 9.71205H16.0276V8.32419C16.0276 6.72347 17.3584 5.42583 19 5.42583C20.6416 5.42583 21.9724 6.72347 21.9724 8.32419V9.71205ZM16.0276 9.71205V15.427C16.0276 16.2161 15.3716 16.8557 14.5624 16.8557C13.7532 16.8557 13.0972 16.2161 13.0972 15.427V9.71205H16.0276Z" fill="#C6A664"/>
</g>
</svg>
