<svg width="37" height="15" viewBox="0 0 37 15" fill="none" xmlns="http://www.w3.org/2000/svg">
<path d="M7.77588 3.39404C8.76709 3.39404 9.52637 3.7749 10.0537 4.53662L10.0024 4.57324C9.97314 4.59277 9.93896 4.61719 9.8999 4.64648C9.86084 4.6709 9.81201 4.70752 9.75342 4.75635C9.69971 4.80518 9.64355 4.85645 9.58496 4.91016C9.53125 4.95898 9.47266 5.02246 9.40918 5.10059C9.3457 5.17383 9.28711 5.25195 9.2334 5.33496C9.17969 5.41797 9.12598 5.51318 9.07227 5.62061C9.01855 5.72314 8.97217 5.83057 8.93311 5.94287C8.89893 6.05518 8.86963 6.17969 8.84521 6.31641C8.82568 6.45312 8.81592 6.59229 8.81592 6.73389C8.81592 7.05127 8.86963 7.34912 8.97705 7.62744C9.08447 7.90576 9.20654 8.12793 9.34326 8.29395C9.47998 8.45508 9.63135 8.59912 9.79736 8.72607C9.96338 8.85303 10.0879 8.93848 10.1709 8.98242C10.2588 9.02637 10.3198 9.05322 10.354 9.06299C10.3442 9.10205 10.3149 9.1875 10.2661 9.31934C10.2222 9.45117 10.1343 9.65381 10.0024 9.92725C9.87549 10.2007 9.73145 10.457 9.57031 10.6963C9.41406 10.9209 9.28467 11.0991 9.18213 11.231C9.07959 11.3579 8.9502 11.502 8.79395 11.6631C8.6377 11.8193 8.47412 11.9341 8.30322 12.0073C8.13721 12.0806 7.96143 12.1172 7.77588 12.1172C7.52197 12.1172 7.22168 12.0415 6.875 11.8901C6.52832 11.7339 6.20117 11.6558 5.89355 11.6558C5.58105 11.6558 5.23926 11.7363 4.86816 11.8975C4.49707 12.0537 4.20166 12.1318 3.98193 12.1318C3.81104 12.1318 3.64502 12.0952 3.48389 12.022C3.32764 11.9536 3.17139 11.8438 3.01514 11.6924C2.86377 11.541 2.73193 11.3921 2.61963 11.2456C2.50732 11.0991 2.36572 10.9062 2.19482 10.667C1.84326 10.1641 1.55273 9.5708 1.32324 8.88721C1.09863 8.19873 0.986328 7.52002 0.986328 6.85107C0.986328 6.30908 1.06934 5.81836 1.23535 5.37891C1.40137 4.93457 1.62109 4.57324 1.89453 4.29492C2.17285 4.0166 2.48047 3.80176 2.81738 3.65039C3.15918 3.49902 3.51318 3.42334 3.87939 3.42334C4.15283 3.42334 4.49707 3.50635 4.91211 3.67236C5.33203 3.83838 5.61035 3.92139 5.74707 3.92139C5.86426 3.92139 6.1499 3.8335 6.604 3.65771C7.05811 3.48193 7.44873 3.39404 7.77588 3.39404ZM7.37305 2.44922C7.17773 2.68359 6.93115 2.87891 6.6333 3.03516C6.34033 3.19141 6.06445 3.26953 5.80566 3.26953C5.75195 3.26953 5.70068 3.26465 5.65186 3.25488C5.63721 3.19629 5.62988 3.12793 5.62988 3.0498C5.62988 2.49805 5.83984 1.97803 6.25977 1.48975C6.46973 1.24561 6.7334 1.04053 7.05078 0.874512C7.36816 0.708496 7.66846 0.620605 7.95166 0.61084C7.96631 0.674316 7.97363 0.75 7.97363 0.837891C7.97363 1.42871 7.77344 1.96582 7.37305 2.44922Z" fill="#A9ABB1"/>
<path d="M13.584 1.43115H17.6929C18.7476 1.43115 19.6045 1.7583 20.2637 2.4126C20.9229 3.06201 21.2524 3.91406 21.2524 4.96875C21.2524 6.01855 20.9131 6.87061 20.2344 7.5249C19.5605 8.1792 18.6865 8.50635 17.6123 8.50635H15.4736V12H13.584V1.43115ZM15.4736 2.97656V6.98291H17.1875C17.8662 6.98291 18.3936 6.80713 18.7695 6.45557C19.1455 6.104 19.3335 5.6084 19.3335 4.96875C19.3335 4.33398 19.1455 3.84326 18.7695 3.49658C18.3984 3.1499 17.8735 2.97656 17.1948 2.97656H15.4736Z" fill="#A9ABB1"/>
<path d="M24.7168 10.7476C25.2393 10.7476 25.6787 10.5938 26.0352 10.2861C26.3965 9.97363 26.5771 9.58545 26.5771 9.12158V8.52832L24.7827 8.63818C24.3433 8.66748 24.0015 8.77734 23.7573 8.96777C23.5181 9.15332 23.3984 9.3999 23.3984 9.70752C23.3984 10.0249 23.5181 10.2788 23.7573 10.4692C24.0015 10.6548 24.3213 10.7476 24.7168 10.7476ZM24.1675 12.1245C23.4106 12.1245 22.7881 11.9072 22.2998 11.4727C21.8164 11.0381 21.5747 10.4741 21.5747 9.78076C21.5747 9.09229 21.8286 8.54785 22.3364 8.14746C22.8491 7.74707 23.5791 7.51758 24.5264 7.45898L26.5771 7.3418V6.78516C26.5771 6.37988 26.4478 6.06494 26.189 5.84033C25.9351 5.61572 25.5811 5.50342 25.127 5.50342C24.7021 5.50342 24.3555 5.59863 24.0869 5.78906C23.8184 5.97949 23.6548 6.23828 23.5962 6.56543H21.9043C21.9434 5.82812 22.2583 5.22998 22.8491 4.771C23.4448 4.30713 24.2285 4.0752 25.2002 4.0752C26.1621 4.0752 26.9312 4.30957 27.5073 4.77832C28.0884 5.24707 28.3789 5.87207 28.3789 6.65332V12H26.6211V10.7622H26.5845C26.3647 11.1772 26.0327 11.5093 25.5884 11.7583C25.144 12.0024 24.6704 12.1245 24.1675 12.1245Z" fill="#A9ABB1"/>
<path d="M30.686 14.8857C30.2905 14.8857 30.0513 14.876 29.9683 14.8564V13.4136C30.0513 13.4331 30.2271 13.4429 30.4956 13.4429C30.8716 13.4429 31.1646 13.3647 31.3745 13.2085C31.5845 13.0522 31.7407 12.7959 31.8433 12.4395C31.8433 12.4346 31.8604 12.3638 31.8945 12.2271C31.9336 12.0903 31.9507 12.0171 31.9458 12.0073L29.1846 4.23633H31.1768L33.0078 10.4473H33.0371L34.8682 4.23633H36.7871L33.9819 12.3076C33.6499 13.2695 33.2397 13.9385 32.7515 14.3145C32.2632 14.6953 31.5747 14.8857 30.686 14.8857Z" fill="#A9ABB1"/>
</svg>
