<svg width="20" height="14" viewBox="0 0 20 14" fill="none" xmlns="http://www.w3.org/2000/svg">
<path d="M0 1C0 0.447715 0.447715 0 1 0H19C19.5523 0 20 0.447715 20 1C20 1.55228 19.5523 2 19 2H1C0.447716 2 0 1.55228 0 1Z" fill="black"/>
<path d="M2 7C2 6.44772 2.44772 6 3 6H19C19.5523 6 20 6.44772 20 7C20 7.55228 19.5523 8 19 8H3C2.44772 8 2 7.55228 2 7Z" fill="black"/>
<path d="M2 13C2 12.4477 2.44772 12 3 12H19C19.5523 12 20 12.4477 20 13C20 13.5523 19.5523 14 19 14H3C2.44772 14 2 13.5523 2 13Z" fill="black"/>
</svg>
