<svg width="19" height="17" viewBox="0 0 19 17" fill="none" xmlns="http://www.w3.org/2000/svg">
<path fill-rule="evenodd" clip-rule="evenodd" d="M12.2857 2C10.4711 2 9 3.47106 9 5.28571C9 7.10036 10.4711 8.57143 12.2857 8.57143C14.1004 8.57143 15.5714 7.10036 15.5714 5.28571C15.5714 3.47106 14.1004 2 12.2857 2ZM7 5.28571C7 2.36649 9.36649 0 12.2857 0C15.2049 0 17.5714 2.36649 17.5714 5.28571C17.5714 6.3839 17.2365 7.40387 16.6633 8.24905L18.7071 10.2929C19.0976 10.6834 19.0976 11.3166 18.7071 11.7071C18.3166 12.0976 17.6834 12.0976 17.2929 11.7071L15.2491 9.66327C14.4039 10.2365 13.3839 10.5714 12.2857 10.5714C9.36649 10.5714 7 8.20493 7 5.28571ZM0 8C0 7.44772 0.447715 7 1 7H3C3.55228 7 4 7.44772 4 8C4 8.55228 3.55228 9 3 9H1C0.447715 9 0 8.55228 0 8ZM0 12C0 11.4477 0.447715 11 1 11H6C6.55228 11 7 11.4477 7 12C7 12.5523 6.55228 13 6 13H1C0.447715 13 0 12.5523 0 12ZM0 16C0 15.4477 0.447715 15 1 15H11C11.5523 15 12 15.4477 12 16C12 16.5523 11.5523 17 11 17H1C0.447715 17 0 16.5523 0 16Z" fill="#A9ABB1"/>
</svg>
