<svg width="16" height="17" viewBox="0 0 16 17" fill="none" xmlns="http://www.w3.org/2000/svg">
<path d="M8.56918 4.39517L9.27629 5.10228L8.56918 4.39517ZM10.3327 2.63167L9.62558 1.92456L9.62558 1.92456L10.3327 2.63167ZM13.8682 6.1672L13.1611 5.4601L13.1611 5.4601L13.8682 6.1672ZM12.1047 7.93071L12.8118 8.63782L12.8118 8.63781L12.1047 7.93071ZM2.92937 10.035L2.22227 9.32787C2.11318 9.43696 2.03081 9.56981 1.9816 9.71603L2.92937 10.035ZM1.13604 15.3639L0.188267 15.0449C0.0671245 15.4049 0.160365 15.8024 0.42893 16.071C0.697495 16.3395 1.09502 16.4328 1.45499 16.3116L1.13604 15.3639ZM6.46491 13.5705L6.78386 14.5183C6.93008 14.4691 7.06293 14.3867 7.17201 14.2776L6.46491 13.5705ZM9.27629 5.10228L11.0398 3.33878L9.62558 1.92456L7.86208 3.68807L9.27629 5.10228ZM13.1611 5.4601L11.3976 7.2236L12.8118 8.63781L14.5753 6.87431L13.1611 5.4601ZM13.1569 3.34304C13.7442 3.93043 13.7429 4.87827 13.1611 5.4601L14.5753 6.87431C15.9414 5.50822 15.9363 3.29405 14.5711 1.92882L13.1569 3.34304ZM14.5711 1.92882C13.2058 0.5636 10.9917 0.558474 9.62558 1.92456L11.0398 3.33878C11.6216 2.75695 12.5695 2.75564 13.1569 3.34304L14.5711 1.92882ZM7.86208 3.68807L2.22227 9.32787L3.63648 10.7421L9.27629 5.10228L7.86208 3.68807ZM1.9816 9.71603L0.188267 15.0449L2.08381 15.6828L3.87714 10.3539L1.9816 9.71603ZM1.45499 16.3116L6.78386 14.5183L6.14595 12.6227L0.817081 14.4161L1.45499 16.3116ZM7.17201 14.2776L12.8118 8.63782L11.3976 7.2236L5.7578 12.8634L7.17201 14.2776ZM7.17201 12.8634L3.63648 9.32787L2.22227 10.7421L5.7578 14.2776L7.17201 12.8634Z" fill="black"/>
</svg>
