<svg width="18" height="18" viewBox="0 0 18 18" fill="none" xmlns="http://www.w3.org/2000/svg">
<path fill-rule="evenodd" clip-rule="evenodd" d="M6.87868 1.70729C8.05025 0.535721 9.94975 0.535719 11.1213 1.70729L17.7071 8.29308C18.0976 8.6836 18.0976 9.31677 17.7071 9.70729C17.3166 10.0978 16.6834 10.0978 16.2929 9.70729L9.70711 3.12151C9.31658 2.73098 8.68342 2.73098 8.29289 3.12151L1.70711 9.70729C1.31658 10.0978 0.683417 10.0978 0.292893 9.70729C-0.0976311 9.31677 -0.0976311 8.6836 0.292893 8.29308L6.87868 1.70729Z" fill="#A9ABB1"/>
<path fill-rule="evenodd" clip-rule="evenodd" d="M4 7.00019V15.0002C4 15.5525 4.44772 16.0002 5 16.0002H13C13.5523 16.0002 14 15.5525 14 15.0002V7.00019H16V15.0002C16 16.657 14.6569 18.0002 13 18.0002H5C3.34315 18.0002 2 16.657 2 15.0002V7.00019H4Z" fill="#A9ABB1"/>
</svg>
