<svg width="18" height="18" viewBox="0 0 18 18" fill="none" xmlns="http://www.w3.org/2000/svg">
<g opacity="0.99">
<mask id="mask0" maskType="alpha" maskUnits="userSpaceOnUse" x="0" y="0" width="18" height="18">
<g opacity="0.99">
<path opacity="0.99" d="M0 0H18V18H0V0Z" fill="black"/>
</g>
</mask>
<g mask="url(#mask0)">
<path opacity="0.99" fill-rule="evenodd" clip-rule="evenodd" d="M9.00002 0C6.55575 0 6.24926 0.0103616 5.28931 0.0541664C4.33137 0.0978639 3.67712 0.250037 3.10466 0.472562C2.51283 0.702555 2.01092 1.01033 1.51055 1.51073C1.01021 2.01116 0.702472 2.51313 0.472506 3.10503C0.250007 3.67756 0.0978523 4.33188 0.0541599 5.28994C0.0103604 6.25 0 6.55653 0 9.00109C0 11.4456 0.0103604 11.7521 0.0541599 12.7122C0.0978523 13.6703 0.250007 14.3246 0.472506 14.8971C0.702472 15.489 1.01021 15.991 1.51055 16.4914C2.01092 16.9918 2.51283 17.2996 3.10466 17.5296C3.67712 17.7521 4.33137 17.9043 5.28931 17.948C6.24926 17.9918 6.55575 18.0021 9.00002 18.0021C11.4443 18.0021 11.7507 17.9918 12.7107 17.948C13.6686 17.9043 14.3229 17.7521 14.8953 17.5296C15.4872 17.2996 15.9891 16.9918 16.4895 16.4914C16.9898 15.991 17.2975 15.489 17.5275 14.8971C17.75 14.3246 17.9021 13.6703 17.9458 12.7122C17.9896 11.7521 18 11.4456 18 9.00109C18 6.55653 17.9896 6.25 17.9458 5.28994C17.9021 4.33188 17.75 3.67756 17.5275 3.10503C17.2975 2.51313 16.9898 2.01116 16.4895 1.51073C15.9891 1.01033 15.4872 0.702555 14.8953 0.472562C14.3229 0.250037 13.6686 0.0978639 12.7107 0.0541664C11.7507 0.0103616 11.4443 0 9.00002 0ZM9.00002 1.62181C11.4031 1.62181 11.6878 1.63099 12.6368 1.6743C13.5143 1.71432 13.9908 1.86095 14.3079 1.98422C14.728 2.1475 15.0278 2.34255 15.3428 2.65755C15.6577 2.97251 15.8528 3.27235 16.016 3.6925C16.1393 4.00967 16.2859 4.48627 16.3259 5.36387C16.3692 6.31299 16.3784 6.59769 16.3784 9.00109C16.3784 11.4045 16.3692 11.6891 16.3259 12.6383C16.2859 13.5159 16.1393 13.9925 16.016 14.3096C15.8528 14.7298 15.6577 15.0296 15.3428 15.3446C15.0278 15.6596 14.728 15.8546 14.3079 16.0179C13.9908 16.1412 13.5143 16.2878 12.6368 16.3278C11.6879 16.3711 11.4033 16.3803 9.00002 16.3803C6.59672 16.3803 6.31213 16.3711 5.36323 16.3278C4.48574 16.2878 4.00919 16.1412 3.69206 16.0179C3.27196 15.8546 2.97215 15.6596 2.65723 15.3446C2.34231 15.0296 2.14725 14.7298 1.98398 14.3096C1.86073 13.9925 1.71411 13.5159 1.6741 12.6383C1.6308 11.6891 1.62162 11.4045 1.62162 9.00109C1.62162 6.59769 1.6308 6.31299 1.6741 5.36387C1.71411 4.48627 1.86073 4.00967 1.98398 3.6925C2.14725 3.27235 2.34227 2.97251 2.65723 2.65755C2.97215 2.34255 3.27196 2.1475 3.69206 1.98422C4.00919 1.86095 4.48574 1.71432 5.36323 1.6743C6.31224 1.63099 6.5969 1.62181 9.00002 1.62181Z" fill="#A9ABB1"/>
</g>
</g>
<path opacity="0.99" fill-rule="evenodd" clip-rule="evenodd" d="M9.00054 12.0009C7.34366 12.0009 6.00052 10.6576 6.00052 9.00061C6.00052 7.34353 7.34366 6.00023 9.00054 6.00023C10.6574 6.00023 12.0005 7.34353 12.0005 9.00061C12.0005 10.6576 10.6574 12.0009 9.00054 12.0009ZM9.00054 4.37842C6.44806 4.37842 4.37891 6.44782 4.37891 9.00061C4.37891 11.5534 6.44806 13.6228 9.00054 13.6228C11.553 13.6228 13.6221 11.5534 13.6221 9.00061C13.6221 6.44782 11.553 4.37842 9.00054 4.37842Z" fill="#A9ABB1"/>
<path opacity="0.99" fill-rule="evenodd" clip-rule="evenodd" d="M14.8846 4.19636C14.8846 4.7929 14.4011 5.27647 13.8046 5.27647C13.2082 5.27647 12.7246 4.7929 12.7246 4.19636C12.7246 3.59981 13.2082 3.11621 13.8046 3.11621C14.4011 3.11621 14.8846 3.59981 14.8846 4.19636Z" fill="#A9ABB1"/>
</svg>
