<svg width="16" height="18" viewBox="0 0 16 18" fill="none" xmlns="http://www.w3.org/2000/svg">
<path fill-rule="evenodd" clip-rule="evenodd" d="M0 4C0 1.79086 1.79086 0 4 0H12C14.2091 0 16 1.79086 16 4V14C16 16.2091 14.2091 18 12 18H4C1.79086 18 0 16.2091 0 14V4ZM4 2C2.89543 2 2 2.89543 2 4V14C2 15.1046 2.89543 16 4 16H12C13.1046 16 14 15.1046 14 14V4C14 2.89543 13.1046 2 12 2H4Z" fill="black"/>
<path fill-rule="evenodd" clip-rule="evenodd" d="M4 11C4 10.4477 4.44772 10 5 10H11C11.5523 10 12 10.4477 12 11C12 11.5523 11.5523 12 11 12H5C4.44772 12 4 11.5523 4 11Z" fill="black"/>
<path fill-rule="evenodd" clip-rule="evenodd" d="M4 8C4 7.44772 4.44772 7 5 7H9C9.55228 7 10 7.44772 10 8C10 8.55229 9.55228 9 9 9H5C4.44772 9 4 8.55229 4 8Z" fill="black"/>
<path fill-rule="evenodd" clip-rule="evenodd" d="M4 5C4 4.44772 4.44772 4 5 4H7C7.55228 4 8 4.44772 8 5C8 5.55228 7.55228 6 7 6H5C4.44772 6 4 5.55228 4 5Z" fill="black"/>
</svg>
