<svg width="16" height="20" viewBox="0 0 16 20" fill="none" xmlns="http://www.w3.org/2000/svg">
<path d="M15 8.00245C15 11.9839 11.2591 16.3812 9.24676 18.4586C8.54751 19.1805 7.45249 19.1805 6.75324 18.4586C4.74092 16.3812 1 11.9839 1 8.00245C1 4.1351 4.13401 1 8 1C11.866 1 15 4.1351 15 8.00245Z" stroke="black" stroke-width="2"/>
<path d="M11 8.2618C11 9.98062 9.65685 11.374 8 11.374C6.34315 11.374 5 9.98062 5 8.2618C5 6.54298 6.34315 5.1496 8 5.1496C9.65685 5.1496 11 6.54298 11 8.2618Z" stroke="black" stroke-width="2"/>
</svg>
