<svg width="26" height="16" viewBox="0 0 26 16" fill="none" xmlns="http://www.w3.org/2000/svg">
<path d="M17 2H9V14H17V2Z" fill="#A9ABB1"/>
<path d="M9.93985 7.99997C9.93985 5.44442 11.146 3.17778 13 1.71111C11.6374 0.644447 9.91749 0 8.04123 0C3.59623 0 0 3.57777 0 7.99997C0 12.4222 3.59623 16 8.04123 16C9.91749 16 11.6374 15.3556 13 14.2889C11.146 12.8444 9.93985 10.5555 9.93985 7.99997Z" fill="#DFE1E8"/>
<path d="M26 8C26 12.4222 22.4038 16 17.9588 16C16.0825 16 14.3626 15.3556 13 14.2889C14.8763 12.8222 16.0602 10.5556 16.0602 8C16.0602 5.44445 14.854 3.17779 13 1.71111C14.3626 0.644449 16.0825 0 17.9588 0C22.4038 0 26 3.60001 26 8Z" fill="#A9ABB1"/>
</svg>
