<svg width="37" height="11" viewBox="0 0 37 11" fill="none" xmlns="http://www.w3.org/2000/svg">
<path fill-rule="evenodd" clip-rule="evenodd" d="M3.97449 0.084238C4.29959 0.0822649 5.26578 -0.00601698 5.67505 1.39526C5.95073 2.33917 6.38987 3.88534 6.99248 6.03378H7.2379C7.88415 3.76875 8.32808 2.22257 8.56971 1.39526C8.98324 -0.0206136 10.017 0.0842657 10.4306 0.0842657L13.621 0.0842697V10.1527H10.3692V4.21919H10.1512L8.33847 10.1527H5.89192L4.07921 4.21479H3.86116V10.1527H0.609375V0.0842697L3.97449 0.084238ZM18.2905 0.0842697V6.02216H18.5499L20.7549 1.13947C21.1829 0.167807 22.0952 0.0842697 22.0952 0.0842697H25.2419V10.1527H21.9223V4.21479H21.6628L19.5011 9.09747C19.0731 10.0647 18.1176 10.1527 18.1176 10.1527H14.9708V0.0842697H18.2905ZM36.7163 4.86884C36.2532 6.20007 34.799 7.15346 33.189 7.15346H29.7077V10.1527H26.5508V4.86884H36.7163Z" fill="#A9ABB1"/>
<path fill-rule="evenodd" clip-rule="evenodd" d="M33.3408 0.0844727H26.3848C26.5503 2.32604 28.4531 4.24497 30.4229 4.24497H36.9351C37.3109 2.38196 36.0172 0.0844727 33.3408 0.0844727Z" fill="#A9ABB1"/>
</svg>
