<svg width="16" height="18" viewBox="0 0 16 18" fill="none" xmlns="http://www.w3.org/2000/svg">
<path fill-rule="evenodd" clip-rule="evenodd" d="M9.97749 8C10.5236 8 10.9662 8.44771 10.9662 9V13C10.9662 13.5523 10.5236 14 9.97749 14C9.43142 14 8.98875 13.5523 8.98875 13V9C8.98875 8.44771 9.43142 8 9.97749 8Z" fill="black"/>
<path fill-rule="evenodd" clip-rule="evenodd" d="M6.02251 8C6.56858 8 7.01125 8.44771 7.01125 9V13C7.01125 13.5523 6.56858 14 6.02251 14C5.47644 14 5.03376 13.5523 5.03376 13V9C5.03376 8.44771 5.47644 8 6.02251 8Z" fill="black"/>
<path fill-rule="evenodd" clip-rule="evenodd" d="M0.0517071 7.55287C-0.290567 5.70663 1.10986 4 2.96714 4H13.0329C14.8901 4 16.2906 5.70662 15.9483 7.55287L14.4652 15.5529C14.2021 16.9718 12.9771 18 11.5497 18H4.45026C3.02286 18 1.79788 16.9718 1.53483 15.5529L0.0517071 7.55287ZM2.96714 6C2.34805 6 1.88124 6.56888 1.99533 7.18429L3.47845 15.1843C3.56613 15.6573 3.97446 16 4.45026 16H11.5497C12.0255 16 12.4339 15.6573 12.5216 15.1843L14.0047 7.18429C14.1188 6.56888 13.652 6 13.0329 6H2.96714Z" fill="black"/>
<path fill-rule="evenodd" clip-rule="evenodd" d="M2.06753 3C2.06753 1.34315 3.39556 0 5.03376 0H10.9662C12.6044 0 13.9325 1.34315 13.9325 3V6H2.06753V3ZM5.03376 2C4.48769 2 4.04502 2.44772 4.04502 3V4H11.955V3C11.955 2.44772 11.5123 2 10.9662 2H5.03376Z" fill="black"/>
</svg>
