<svg width="36" height="12" viewBox="0 0 36 12" fill="none" xmlns="http://www.w3.org/2000/svg">
<path d="M14.7728 0.9375L12.9971 11.0422H15.8353L17.6098 0.9375H14.7728ZM23.3335 5.05359C22.3417 4.60571 21.7337 4.3034 21.7337 3.84534C21.7458 3.42884 22.2478 3.00209 23.3689 3.00209C24.291 2.9809 24.9687 3.17909 25.4828 3.37628L25.7404 3.4814L26.1263 1.36721C25.5657 1.16904 24.6768 0.9507 23.579 0.9507C20.7763 0.9507 18.8027 2.28328 18.7905 4.18921C18.7673 5.59565 20.2034 6.37609 21.2781 6.84428C22.3761 7.32459 22.7498 7.63596 22.7498 8.06265C22.7376 8.71784 21.862 9.02009 21.0449 9.02009C19.9129 9.02009 19.3047 8.8644 18.3816 8.49934L18.0079 8.34365L17.611 10.5408C18.2777 10.8118 19.5037 11.0503 20.7764 11.0625C23.7549 11.0625 25.693 9.75009 25.7174 7.7189C25.7271 6.60465 24.9698 5.75121 23.3335 5.05359ZM33.4022 0.968775H31.2065C30.5298 0.968775 30.0157 1.14676 29.7227 1.78173L25.507 11.0422H28.4855L29.3058 9.03728H32.6382L33.0638 11.0503H35.6908L33.4022 0.968775ZM30.1319 7.01396C30.1893 7.01909 31.2751 3.74109 31.2751 3.74109L32.1397 7.01396C32.1397 7.01396 30.6924 7.01396 30.1319 7.01396ZM10.6257 0.9375L7.84505 7.80271L7.54216 6.44884C7.02798 4.88671 5.41609 3.18915 3.61719 2.34596L6.16342 11.0322H9.16633L13.6286 0.938613H10.6257V0.9375Z" fill="#A9ABB1"/>
<path d="M6.6059 2.24164C6.38917 1.47115 5.69816 0.951517 4.75959 0.94043H0.355898L0.310547 1.12739C3.74573 1.90186 6.62903 4.28492 7.56449 6.52654L6.6059 2.24164Z" fill="#A9ABB1"/>
</svg>

