<svg width="22" height="15" viewBox="0 0 22 15" fill="none" xmlns="http://www.w3.org/2000/svg">
<path opacity="0.99" fill-rule="evenodd" clip-rule="evenodd" d="M11.2481 0.250026C12.4617 0.255235 17.7643 0.30003 19.2167 0.685264C20.1162 0.919991 20.8255 1.60741 21.0677 2.47925C21.4575 3.85968 21.4965 6.53721 21.5 7.22668L21.4998 7.48584C21.4959 8.03526 21.457 10.854 21.0677 12.2875C20.8255 13.1594 20.1162 13.8468 19.2167 14.0815C17.7643 14.4519 12.4617 14.495 11.2481 14.5L10.7516 14.5C9.54101 14.4948 4.25007 14.45 2.78246 14.0647C1.88291 13.83 1.17364 13.1426 0.931454 12.2707C0.556639 10.9049 0.506663 8.22926 0.5 7.54005V7.21073C0.506663 6.52462 0.556639 3.85968 0.931454 2.47925C1.17364 1.60741 1.90021 0.903225 2.78246 0.668497C4.23479 0.29808 9.53746 0.255008 10.751 0.25L11.2481 0.250026ZM8.90636 4.32354V10.4265L14.3729 7.375L8.90636 4.32354Z" fill="#A9ABB1"/>
</svg>
